<?xml version="1.0" encoding="utf-8" standalone="no"?>
<!DOCTYPE svg PUBLIC "-//W3C//DTD SVG 1.1//EN"
  "http://www.w3.org/Graphics/SVG/1.1/DTD/svg11.dtd">
<svg xmlns:xlink="http://www.w3.org/1999/xlink" width="547.904pt" height="436.288pt" viewBox="0 0 547.904 436.288" xmlns="http://www.w3.org/2000/svg" version="1.1">
 <metadata>
  <rdf:RDF xmlns:dc="http://purl.org/dc/elements/1.1/" xmlns:cc="http://creativecommons.org/ns#" xmlns:rdf="http://www.w3.org/1999/02/22-rdf-syntax-ns#">
   <cc:Work>
    <dc:type rdf:resource="http://purl.org/dc/dcmitype/StillImage"/>
    <dc:date>2026-06-17T14:38:46.560806</dc:date>
    <dc:format>image/svg+xml</dc:format>
    <dc:creator>
     <cc:Agent>
      <dc:title>Matplotlib v3.11.0, https://matplotlib.org/</dc:title>
     </cc:Agent>
    </dc:creator>
   </cc:Work>
  </rdf:RDF>
 </metadata>
 <defs>
  <style type="text/css">*{stroke-linejoin: round; stroke-linecap: butt}</style>
 </defs>
 <g id="figure_1">
  <g id="patch_1">
   <path d="M 0 436.288 
L 547.904 436.288 
L 547.904 0 
L 0 0 
z
" style="fill: #ffffff"/>
  </g>
  <g id="axes_1">
   <g id="patch_2">
    <path d="M 429.28 235.048 
C 429.28 209.566901 424.260779 184.333573 414.509584 160.792107 
C 404.75839 137.250641 390.464858 115.858858 372.447 97.841 
C 354.429142 79.823142 333.037359 65.52961 309.495893 55.778416 
C 285.954427 46.027221 260.721099 41.008 235.24 41.008 
C 209.758901 41.008 184.525573 46.027221 160.984107 55.778416 
C 137.442641 65.52961 116.050858 79.823142 98.033 97.841 
C 80.015142 115.858858 65.72161 137.250641 55.970416 160.792107 
C 46.219221 184.333573 41.2 209.566901 41.2 235.048 
C 41.2 260.529099 46.219221 285.762427 55.970416 309.303893 
C 65.72161 332.845359 80.015142 354.237142 98.033 372.255 
C 116.050858 390.272858 137.442641 404.56639 160.984107 414.317584 
C 184.525573 424.068779 209.758901 429.088 235.24 429.088 
C 260.721099 429.088 285.954427 424.068779 309.495893 414.317584 
C 333.037359 404.56639 354.429142 390.272858 372.447 372.255 
C 390.464858 354.237142 404.75839 332.845359 414.509584 309.303893 
C 424.260779 285.762427 429.28 260.529099 429.28 235.048 
M 235.24 235.048 
C 235.24 235.048 235.24 235.048 235.24 235.048 
C 235.24 235.048 235.24 235.048 235.24 235.048 
C 235.24 235.048 235.24 235.048 235.24 235.048 
C 235.24 235.048 235.24 235.048 235.24 235.048 
C 235.24 235.048 235.24 235.048 235.24 235.048 
C 235.24 235.048 235.24 235.048 235.24 235.048 
C 235.24 235.048 235.24 235.048 235.24 235.048 
C 235.24 235.048 235.24 235.048 235.24 235.048 
C 235.24 235.048 235.24 235.048 235.24 235.048 
C 235.24 235.048 235.24 235.048 235.24 235.048 
C 235.24 235.048 235.24 235.048 235.24 235.048 
C 235.24 235.048 235.24 235.048 235.24 235.048 
C 235.24 235.048 235.24 235.048 235.24 235.048 
C 235.24 235.048 235.24 235.048 235.24 235.048 
C 235.24 235.048 235.24 235.048 235.24 235.048 
C 235.24 235.048 235.24 235.048 235.24 235.048 
z
" style="fill: #ffffff"/>
   </g>
   <g id="patch_3">
    <path d="M 371.068 235.048 
L 293.452 134.221858 
L 167.326 117.417501 
L 80.008 235.048 
L 157.624 369.482855 
L 332.26 403.091569 
z
" clip-path="url(#p9fd6de5eec)" style="fill: #2563eb; opacity: 0.25; stroke: #2563eb; stroke-linejoin: miter"/>
   </g>
   <g id="patch_4">
    <path d="M 429.28 235.048 
L 274.048 167.830572 
L 157.624 100.613145 
L 138.22 235.048 
L 196.432 302.265428 
L 235.24 235.048 
z
" clip-path="url(#p9fd6de5eec)" style="fill: #f59e0b; opacity: 0.15; stroke: #f59e0b; stroke-linejoin: miter"/>
   </g>
   <g id="matplotlib.axis_1">
    <g id="xtick_1">
     <g id="line2d_1">
      <path d="M 235.24 235.048 
L 429.28 235.048 
" clip-path="url(#p9fd6de5eec)" style="fill: none; stroke: #b0b0b0; stroke-width: 0.8; stroke-linecap: square"/>
     </g>
     <g id="text_1">
      <!-- 分辨率 -->
      <g transform="translate(428.28 237.977785) scale(0.1 -0.1)">
       <defs>
        <path id="MicrosoftYaHei-4e3" d="M 900 2559 
L 5056 2559 
Q 5025 1497 4963 484 
Q 4888 -684 3856 -678 
Q 3350 -684 2788 -647 
Q 2750 -384 2700 -116 
Q 3181 -184 3775 -191 
Q 4400 -203 4463 541 
Q 4513 1216 4538 2097 
L 2616 2097 
Q 2541 1053 2181 416 
Q 1706 -422 588 -878 
Q 425 -666 231 -459 
Q 1269 -72 1725 666 
Q 2053 1225 2103 2097 
L 900 2097 
L 900 2559 
z
M 3488 5159 
L 3938 5353 
Q 4625 3678 6350 2847 
Q 6069 2553 5944 2372 
Q 4225 3366 3488 5159 
z
M 50 2766 
Q 1338 3678 2250 5253 
L 2694 5009 
Q 1744 3347 413 2341 
Q 281 2534 50 2766 
z
" transform="scale(0.015625)"/>
        <path id="MicrosoftYaHei-b04" d="M 3813 1366 
L 4775 1366 
L 4775 2309 
L 3756 2309 
L 3756 2716 
L 5053 2716 
Q 5334 3281 5606 3941 
L 6050 3722 
Q 5778 3209 5494 2716 
L 6269 2716 
L 6269 2309 
L 5225 2309 
L 5225 1366 
L 6225 1366 
L 6225 959 
L 5225 959 
L 5225 -841 
L 4775 -841 
L 4775 959 
L 3813 959 
L 3813 1366 
z
M 150 1372 
L 1028 1372 
Q 1050 1578 1050 2328 
L 119 2328 
L 119 2734 
L 1328 2734 
Q 1547 3184 1819 3909 
L 2256 3709 
Q 1947 3094 1753 2734 
L 2300 2734 
L 2300 2328 
L 1500 2328 
Q 1500 1791 1481 1372 
L 2319 1372 
L 2319 966 
L 1431 966 
Q 1228 -181 425 -847 
Q 219 -591 94 -484 
Q 763 66 963 966 
L 150 966 
L 150 1372 
z
M 3188 5241 
L 3606 5241 
L 3606 2253 
Q 3606 191 2256 -841 
Q 2113 -678 1919 -503 
Q 3188 422 3188 2297 
L 3188 5241 
z
M 3788 4466 
L 4916 4466 
Q 4772 4778 4538 5166 
L 4931 5353 
Q 5156 5009 5356 4628 
L 5025 4466 
L 6163 4466 
L 6163 4059 
L 3788 4059 
L 3788 4466 
z
M 150 4453 
L 1219 4453 
Q 1050 4828 844 5141 
L 1238 5341 
Q 1525 4903 1663 4616 
L 1328 4453 
L 2350 4453 
L 2350 4047 
L 150 4047 
L 150 4453 
z
M 2519 3709 
L 2919 3678 
Q 2844 2641 2719 1691 
Q 2481 1734 2313 1759 
Q 2481 2678 2519 3709 
z
M 3944 3722 
L 4319 3916 
Q 4594 3484 4806 3053 
L 4400 2828 
Q 4194 3316 3944 3722 
z
M 244 3716 
L 606 3891 
Q 906 3378 1069 3009 
L 681 2797 
Q 494 3259 244 3716 
z
" transform="scale(0.015625)"/>
        <path id="MicrosoftYaHei-8e4" d="M 2525 2009 
Q 2622 2016 3928 2081 
Q 3772 2300 3625 2491 
L 3963 2703 
Q 4413 2203 4794 1653 
L 4394 1403 
Q 4284 1569 4178 1725 
Q 2991 1659 2213 1597 
Q 2075 1584 1881 1541 
L 1725 1966 
Q 1913 2028 2006 2084 
Q 2534 2441 3050 2913 
Q 2597 2894 2275 2866 
Q 2144 2847 1988 2809 
L 1800 3191 
Q 1956 3247 2088 3366 
Q 2509 3722 2875 4228 
L 231 4228 
L 231 4666 
L 3031 4666 
Q 2878 4944 2744 5153 
L 3194 5372 
Q 3438 5000 3616 4666 
L 6175 4666 
L 6175 4228 
L 3053 4228 
L 3350 4072 
Q 2844 3553 2494 3247 
Q 2850 3256 3425 3269 
Q 3675 3519 3925 3797 
L 4356 3547 
Q 3363 2603 2525 2009 
z
M 144 991 
L 2994 991 
L 2994 1541 
L 3488 1541 
L 3488 991 
L 6275 991 
L 6275 553 
L 3488 553 
L 3488 -853 
L 2994 -853 
L 2994 553 
L 144 553 
L 144 991 
z
M 1719 2672 
L 1944 2303 
Q 1200 1866 425 1409 
L 163 1828 
Q 813 2134 1719 2672 
z
M 4856 2678 
Q 5750 2172 6250 1816 
L 5975 1409 
Q 5331 1909 4600 2341 
L 4856 2678 
z
M 5994 3591 
Q 5519 3178 4963 2809 
L 4644 3141 
Q 5244 3534 5638 3928 
L 5994 3591 
z
M 363 3634 
L 681 3941 
Q 1200 3528 1588 3159 
L 1238 2816 
Q 875 3197 363 3634 
z
" transform="scale(0.015625)"/>
       </defs>
       <use xlink:href="#MicrosoftYaHei-4e3"/>
       <use xlink:href="#MicrosoftYaHei-b04" transform="translate(100 0)"/>
       <use xlink:href="#MicrosoftYaHei-8e4" transform="translate(200 0)"/>
      </g>
     </g>
    </g>
    <g id="xtick_2">
     <g id="line2d_2">
      <path d="M 235.24 235.048 
L 332.26 67.004431 
" clip-path="url(#p9fd6de5eec)" style="fill: none; stroke: #b0b0b0; stroke-width: 0.8; stroke-linecap: square"/>
     </g>
     <g id="text_2">
      <!-- 像元尺寸 -->
      <g transform="translate(319.26 57.770798) scale(0.1 -0.1)">
       <defs>
        <path id="MicrosoftYaHei-4a6" d="M 5638 2322 
L 5963 1978 
Q 5575 1716 5147 1463 
Q 5481 547 6313 -9 
Q 6075 -197 5900 -391 
Q 5163 266 4794 1263 
Q 4647 1181 4497 1100 
Q 4606 709 4600 291 
Q 4588 -778 3625 -759 
Q 3388 -759 3013 -747 
Q 2969 -503 2906 -284 
Q 3400 -334 3594 -334 
Q 4150 -347 4169 316 
Q 4169 544 4131 766 
Q 3331 25 1913 -616 
Q 1794 -434 1625 -228 
Q 3072 294 4019 1197 
Q 3956 1369 3869 1534 
Q 3031 791 1875 303 
Q 1750 491 1588 678 
Q 2791 1091 3663 1859 
Q 3572 1984 3466 2106 
Q 2897 1666 1869 1216 
Q 1731 1409 1581 1578 
Q 2794 2053 3319 2516 
L 2606 2516 
L 2606 2372 
L 2175 2372 
L 2175 3578 
Q 2003 3428 1825 3284 
Q 1763 3409 1563 3684 
Q 2513 4403 3169 5316 
L 3700 5316 
Q 3534 5066 3350 4828 
L 5106 4828 
L 5106 4459 
L 4544 3878 
L 5894 3878 
L 5894 2516 
L 3891 2516 
Q 3834 2447 3769 2378 
Q 4159 1947 4366 1472 
Q 5122 1916 5638 2322 
z
M 81 2291 
Q 900 3534 1425 5322 
L 1894 5203 
Q 1600 4328 1275 3594 
L 1275 -828 
L 838 -828 
L 838 2700 
Q 566 2197 275 1778 
Q 188 2041 81 2291 
z
M 4506 4441 
L 3031 4441 
Q 2778 4150 2497 3878 
L 3994 3878 
L 4506 4441 
z
M 5463 2903 
L 5463 3491 
L 4306 3491 
Q 4247 3175 4122 2903 
L 5463 2903 
z
M 2606 2903 
L 3644 2903 
Q 3800 3169 3853 3491 
L 2606 3491 
L 2606 2903 
z
" transform="scale(0.015625)"/>
        <path id="MicrosoftYaHei-4ab" d="M 188 3084 
L 6225 3084 
L 6225 2609 
L 4250 2609 
L 4250 172 
Q 4250 -197 4625 -197 
L 5163 -197 
Q 5613 -197 5675 216 
Q 5731 566 5769 1103 
Q 6019 1016 6313 947 
Q 6250 409 6181 47 
Q 6056 -641 5275 -641 
L 4513 -641 
Q 3725 -641 3725 128 
L 3725 2609 
L 2450 2609 
L 2450 2409 
Q 2450 1084 2050 447 
Q 1650 -247 469 -847 
Q 244 -572 100 -428 
Q 1181 103 1556 691 
Q 1925 1253 1925 2384 
L 1925 2609 
L 188 2609 
L 188 3084 
z
M 788 4903 
L 5638 4903 
L 5638 4428 
L 788 4428 
L 788 4903 
z
" transform="scale(0.015625)"/>
        <path id="MicrosoftYaHei-63e" d="M 1050 4859 
L 5531 4859 
L 5531 2309 
L 5044 2309 
L 5044 2559 
L 3250 2559 
Q 3838 553 6306 -228 
Q 6075 -566 5944 -753 
Q 3306 284 2775 2559 
L 1544 2559 
Q 1500 391 431 -847 
Q 363 -753 75 -416 
Q 1050 653 1050 2791 
L 1050 4859 
z
M 5044 4397 
L 1550 4397 
L 1550 3022 
L 5044 3022 
L 5044 4397 
z
" transform="scale(0.015625)"/>
        <path id="MicrosoftYaHei-62a" d="M 194 4109 
L 4250 4109 
L 4250 5297 
L 4794 5297 
L 4794 4109 
L 6219 4109 
L 6219 3628 
L 4794 3628 
L 4794 441 
Q 4794 -672 3769 -672 
Q 3231 -672 2313 -666 
Q 2269 -416 2163 -53 
Q 2881 -128 3644 -122 
Q 4250 -122 4250 528 
L 4250 3628 
L 194 3628 
L 194 4109 
z
M 1319 3153 
Q 2113 2353 2813 1566 
L 2331 1159 
Q 1650 2028 931 2809 
L 1319 3153 
z
" transform="scale(0.015625)"/>
       </defs>
       <use xlink:href="#MicrosoftYaHei-4a6"/>
       <use xlink:href="#MicrosoftYaHei-4ab" transform="translate(100 0)"/>
       <use xlink:href="#MicrosoftYaHei-63e" transform="translate(200 0)"/>
       <use xlink:href="#MicrosoftYaHei-62a" transform="translate(300 0)"/>
      </g>
     </g>
    </g>
    <g id="xtick_3">
     <g id="line2d_3">
      <path d="M 235.24 235.048 
L 138.22 67.004431 
" clip-path="url(#p9fd6de5eec)" style="fill: none; stroke: #b0b0b0; stroke-width: 0.8; stroke-linecap: square"/>
     </g>
     <g id="text_3">
      <!-- 动态范围 -->
      <g transform="translate(111.22 57.775485) scale(0.1 -0.1)">
       <defs>
        <path id="MicrosoftYaHei-508" d="M 2975 4022 
L 3906 4022 
Q 3916 4650 3913 5309 
L 4425 5309 
Q 4422 4656 4409 4022 
L 6094 4022 
Q 6050 1659 5969 216 
Q 5900 -666 5150 -678 
Q 4763 -678 4306 -659 
Q 4263 -397 4206 -109 
Q 4638 -166 4994 -172 
Q 5456 -172 5475 347 
Q 5569 1897 5588 3547 
L 4400 3547 
Q 4394 3278 4388 3016 
Q 4356 553 2900 -872 
Q 2725 -659 2525 -447 
Q 3831 716 3888 3028 
Q 3894 3284 3900 3547 
L 2975 3547 
L 2975 4022 
z
M 2338 1866 
Q 2731 1016 3063 178 
Q 2788 59 2594 -28 
Q 2550 91 2506 209 
Q 1316 97 338 -16 
L 119 491 
Q 394 647 563 997 
Q 869 1613 1200 2559 
L 144 2559 
L 144 3022 
L 3163 3022 
L 3163 2559 
L 1725 2559 
Q 1191 1228 800 491 
Q 1519 544 2347 631 
Q 2138 1163 1906 1672 
L 2338 1866 
z
M 406 4778 
L 2913 4778 
L 2913 4316 
L 406 4316 
L 406 4778 
z
" transform="scale(0.015625)"/>
        <path id="MicrosoftYaHei-6c1" d="M 325 4434 
L 2888 4434 
Q 2972 4822 2969 5328 
L 3438 5328 
Q 3444 4841 3372 4434 
L 6075 4434 
L 6075 3991 
L 3528 3991 
Q 4419 2706 6231 2241 
Q 6050 2034 5881 1759 
Q 4041 2394 3172 3772 
Q 2975 3331 2588 2953 
Q 3078 2616 3538 2259 
L 3225 1891 
Q 2828 2244 2259 2675 
Q 1556 2138 388 1703 
Q 294 1922 113 2178 
Q 2250 2866 2750 3991 
L 325 3991 
L 325 4434 
z
M 1713 1547 
L 2200 1547 
L 2200 203 
Q 2200 -172 2575 -172 
L 3763 -172 
Q 4175 -172 4256 134 
Q 4331 428 4381 1028 
Q 4556 953 4863 847 
Q 4763 128 4706 -47 
Q 4563 -616 3869 -616 
L 2488 -616 
Q 1713 -616 1713 172 
L 1713 1547 
z
M 813 1447 
L 1281 1297 
Q 1038 522 663 -297 
Q 463 -203 194 -116 
Q 569 591 813 1447 
z
M 4894 1272 
L 5263 1553 
Q 5781 972 6306 309 
L 5888 -9 
Q 5425 641 4894 1272 
z
M 2594 1503 
L 2913 1809 
Q 3419 1403 3850 991 
L 3488 641 
Q 3094 1059 2594 1503 
z
" transform="scale(0.015625)"/>
        <path id="MicrosoftYaHei-a38" d="M 2600 3341 
L 5575 3341 
Q 5525 2416 5481 1828 
Q 5400 941 4550 941 
Q 4188 941 3713 959 
Q 3675 1209 3613 1503 
Q 4163 1428 4538 1428 
Q 4931 1428 4988 1822 
Q 5031 2241 5056 2903 
L 3094 2903 
L 3094 197 
Q 3094 -191 3488 -191 
L 5125 -191 
Q 5625 -209 5694 191 
Q 5781 672 5806 1134 
Q 6069 1028 6313 947 
Q 6263 522 6169 22 
Q 6056 -678 5169 -641 
L 3344 -641 
Q 2600 -628 2600 109 
L 2600 3341 
z
M 150 4653 
L 1863 4653 
L 1863 5328 
L 2363 5328 
L 2363 4653 
L 4050 4653 
L 4050 5328 
L 4550 5328 
L 4550 4653 
L 6269 4653 
L 6269 4209 
L 4550 4209 
L 4550 3659 
L 4050 3659 
L 4050 4209 
L 2363 4209 
L 2363 3659 
L 1863 3659 
L 1863 4209 
L 150 4209 
L 150 4653 
z
M 1525 1559 
Q 1700 1422 1975 1253 
Q 1213 -97 813 -734 
L 344 -422 
Q 988 484 1525 1559 
z
M 1119 3784 
Q 1788 3316 2156 3016 
L 1819 2622 
Q 1275 3109 819 3428 
L 1119 3784 
z
M 431 2747 
Q 1025 2341 1438 1984 
L 1125 1591 
Q 494 2141 131 2378 
L 431 2747 
z
" transform="scale(0.015625)"/>
        <path id="MicrosoftYaHei-5a0" d="M 469 4997 
L 5938 4997 
L 5938 -834 
L 5469 -834 
L 5469 -528 
L 938 -528 
L 938 -841 
L 469 -841 
L 469 4997 
z
M 5469 4553 
L 938 4553 
L 938 -84 
L 5469 -84 
L 5469 4553 
z
M 1200 2016 
L 2794 2016 
L 2794 2541 
L 1481 2541 
L 1481 2953 
L 2794 2953 
L 2794 3472 
L 1325 3472 
L 1325 3884 
L 2794 3884 
L 2794 4409 
L 3250 4409 
L 3250 3884 
L 4963 3884 
L 4963 3472 
L 3250 3472 
L 3250 2953 
L 4756 2953 
L 4756 2541 
L 3250 2541 
L 3250 2016 
L 4925 2016 
Q 4906 1634 4869 1191 
Q 4819 478 4169 478 
Q 3888 478 3569 497 
Q 3538 728 3475 984 
Q 3806 934 4063 928 
Q 4394 909 4419 1234 
Q 4438 1409 4444 1603 
L 3250 1603 
L 3250 72 
L 2794 72 
L 2794 1603 
L 1200 1603 
L 1200 2016 
z
" transform="scale(0.015625)"/>
       </defs>
       <use xlink:href="#MicrosoftYaHei-508"/>
       <use xlink:href="#MicrosoftYaHei-6c1" transform="translate(100 0)"/>
       <use xlink:href="#MicrosoftYaHei-a38" transform="translate(200 0)"/>
       <use xlink:href="#MicrosoftYaHei-5a0" transform="translate(300 0)"/>
      </g>
     </g>
    </g>
    <g id="xtick_4">
     <g id="line2d_4">
      <path d="M 235.24 235.048 
L 41.2 235.048 
" clip-path="url(#p9fd6de5eec)" style="fill: none; stroke: #b0b0b0; stroke-width: 0.8; stroke-linecap: square"/>
     </g>
     <g id="text_4">
      <!-- 读出噪声 -->
      <g transform="translate(7.2 237.934035) scale(0.1 -0.1)">
       <defs>
        <path id="MicrosoftYaHei-aaf" d="M 1844 3516 
L 3750 3516 
L 3750 4141 
L 2075 4141 
L 2075 4578 
L 3750 4578 
L 3750 5303 
L 4225 5303 
L 4225 4578 
L 6013 4578 
L 6013 4141 
L 4225 4141 
L 4225 3516 
L 6138 3516 
L 6063 2291 
Q 5838 2316 5581 2322 
L 5650 3078 
L 1844 3078 
L 1844 3516 
z
M 1794 1291 
L 4063 1291 
Q 4188 1803 4156 2916 
L 4631 2916 
Q 4650 1741 4556 1291 
L 6219 1291 
L 6219 853 
L 4463 853 
Q 4419 734 4369 634 
Q 5300 134 6200 -391 
L 5888 -816 
Q 4950 -222 4125 247 
Q 3563 -434 2044 -884 
Q 1906 -666 1731 -434 
Q 3544 53 3950 853 
L 1794 853 
L 1794 1291 
z
M 2025 672 
Q 2038 384 2069 128 
Q 1381 -316 913 -691 
L 625 -278 
Q 838 -91 838 259 
L 838 2678 
L 88 2678 
L 88 3128 
L 1306 3128 
L 1306 166 
Q 1619 378 2025 672 
z
M 813 5147 
Q 1288 4672 1763 4141 
L 1331 3784 
Q 894 4334 431 4834 
L 813 5147 
z
M 2056 1997 
L 2281 2334 
Q 2869 2053 3425 1728 
L 3181 1353 
Q 2675 1678 2056 1997 
z
M 2513 2678 
L 2744 3022 
Q 3331 2734 3869 2434 
L 3619 2053 
Q 3088 2384 2513 2678 
z
" transform="scale(0.015625)"/>
        <path id="MicrosoftYaHei-4df" d="M 5100 2172 
L 5100 2403 
L 3456 2403 
L 3456 -47 
L 5288 -47 
L 5288 1734 
L 5813 1734 
L 5813 -747 
L 5288 -747 
L 5288 -522 
L 588 -522 
L 588 1734 
L 1119 1734 
L 1119 -47 
L 2913 -47 
L 2913 2403 
L 756 2403 
L 756 4647 
L 1288 4647 
L 1288 2878 
L 2913 2878 
L 2913 5222 
L 3456 5222 
L 3456 2878 
L 5100 2878 
L 5100 4647 
L 5631 4647 
L 5631 2172 
L 5100 2172 
z
" transform="scale(0.015625)"/>
        <path id="MicrosoftYaHei-599" d="M 388 4647 
L 1844 4647 
L 1844 616 
L 813 616 
L 813 216 
L 388 216 
L 388 4647 
z
M 2100 1259 
L 3875 1259 
L 3875 1634 
L 4313 1634 
L 4313 1259 
L 6225 1259 
L 6225 853 
L 4638 853 
Q 5256 194 6338 -128 
Q 6163 -372 6044 -603 
Q 4959 -134 4313 709 
L 4313 -822 
L 3875 -822 
L 3875 713 
Q 3069 -106 1863 -653 
Q 1731 -441 1544 -253 
Q 2713 175 3475 853 
L 2100 853 
L 2100 1259 
z
M 2681 5103 
L 5588 5103 
L 5588 3459 
L 5163 3459 
L 5163 3628 
L 3106 3628 
L 3106 3459 
L 2681 3459 
L 2681 5103 
z
M 4369 3222 
L 6000 3222 
L 6000 1647 
L 5600 1647 
L 5600 1841 
L 4769 1841 
L 4769 1703 
L 4369 1703 
L 4369 3222 
z
M 2263 3222 
L 3838 3222 
L 3838 1703 
L 3438 1703 
L 3438 1841 
L 2663 1841 
L 2663 1647 
L 2263 1647 
L 2263 3222 
z
M 1419 1028 
L 1419 4234 
L 813 4234 
L 813 1028 
L 1419 1028 
z
M 5163 4728 
L 3106 4728 
L 3106 4003 
L 5163 4003 
L 5163 4728 
z
M 5600 2847 
L 4769 2847 
L 4769 2216 
L 5600 2216 
L 5600 2847 
z
M 3438 2847 
L 2663 2847 
L 2663 2216 
L 3438 2216 
L 3438 2847 
z
" transform="scale(0.015625)"/>
        <path id="MicrosoftYaHei-5d2" d="M 956 2666 
L 5581 2666 
L 5581 628 
L 5094 628 
L 5094 916 
L 1400 916 
Q 1275 -84 438 -853 
Q 275 -653 100 -428 
Q 956 234 956 1603 
L 956 2666 
z
M 756 3609 
L 3025 3609 
L 3025 4228 
L 231 4228 
L 231 4659 
L 3025 4659 
L 3025 5316 
L 3531 5316 
L 3531 4659 
L 6294 4659 
L 6294 4228 
L 3531 4228 
L 3531 3609 
L 5788 3609 
L 5788 3178 
L 756 3178 
L 756 3609 
z
M 5094 2247 
L 3513 2247 
L 3513 1334 
L 5094 1334 
L 5094 2247 
z
M 1450 2247 
L 1450 1334 
L 3025 1334 
L 3025 2247 
L 1450 2247 
z
" transform="scale(0.015625)"/>
       </defs>
       <use xlink:href="#MicrosoftYaHei-aaf"/>
       <use xlink:href="#MicrosoftYaHei-4df" transform="translate(100 0)"/>
       <use xlink:href="#MicrosoftYaHei-599" transform="translate(200 0)"/>
       <use xlink:href="#MicrosoftYaHei-5d2" transform="translate(300 0)"/>
      </g>
     </g>
    </g>
    <g id="xtick_5">
     <g id="line2d_5">
      <path d="M 235.24 235.048 
L 138.22 403.091569 
" clip-path="url(#p9fd6de5eec)" style="fill: none; stroke: #b0b0b0; stroke-width: 0.8; stroke-linecap: square"/>
     </g>
     <g id="text_5">
      <!-- 帧率 -->
      <g transform="translate(121.22 418.14571) scale(0.1 -0.1)">
       <defs>
        <path id="MicrosoftYaHei-66c" d="M 375 4109 
L 1213 4109 
L 1213 5284 
L 1650 5284 
L 1650 4109 
L 2500 4109 
L 2500 1059 
Q 2500 559 1800 597 
Q 1756 784 1669 1047 
Q 2069 972 2075 1197 
L 2075 3684 
L 1650 3684 
L 1650 -866 
L 1213 -866 
L 1213 3684 
L 800 3684 
L 800 584 
L 375 584 
L 375 4109 
z
M 2969 3484 
L 4138 3484 
L 4138 5284 
L 4613 5284 
L 4613 4622 
L 6300 4622 
L 6300 4184 
L 4613 4184 
L 4613 3484 
L 5919 3484 
L 5919 478 
L 5463 478 
L 5463 3059 
L 3425 3059 
L 3425 478 
L 2969 478 
L 2969 3484 
z
M 4213 2728 
L 4669 2728 
Q 4675 1466 4575 978 
Q 4544 822 4488 672 
Q 5394 147 6275 -472 
L 5950 -872 
Q 5113 -197 4313 291 
Q 3831 -484 2588 -922 
Q 2456 -728 2263 -484 
Q 3900 -59 4138 1097 
Q 4219 1484 4213 2728 
z
" transform="scale(0.015625)"/>
       </defs>
       <use xlink:href="#MicrosoftYaHei-66c"/>
       <use xlink:href="#MicrosoftYaHei-8e4" transform="translate(100 0)"/>
      </g>
     </g>
    </g>
    <g id="xtick_6">
     <g id="line2d_6">
      <path d="M 235.24 235.048 
L 332.26 403.091569 
" clip-path="url(#p9fd6de5eec)" style="fill: none; stroke: #b0b0b0; stroke-width: 0.8; stroke-linecap: square"/>
     </g>
     <g id="text_6">
      <!-- 快门方式 -->
      <g transform="translate(319.26 418.126179) scale(0.1 -0.1)">
       <defs>
        <path id="MicrosoftYaHei-6bd" d="M 1875 2184 
L 3538 2184 
Q 3588 2703 3606 3728 
L 2300 3728 
L 2300 4172 
L 3613 4172 
Q 3613 4666 3613 5266 
L 4106 5266 
Q 4106 4672 4100 4172 
L 5625 4172 
L 5625 2184 
L 6238 2184 
L 6238 1741 
L 4213 1741 
Q 4725 322 6206 -341 
Q 6044 -497 5788 -822 
Q 4369 -22 3869 1459 
Q 3494 53 2038 -872 
Q 1831 -609 1669 -453 
Q 3169 434 3475 1741 
L 1875 1741 
L 1875 2184 
z
M 963 5266 
L 1431 5266 
L 1431 3891 
L 1675 4053 
Q 2081 3603 2381 3178 
L 2006 2903 
Q 1731 3328 1431 3697 
L 1431 -847 
L 963 -847 
L 963 5266 
z
M 5138 3728 
L 4094 3728 
Q 4081 2734 4038 2184 
L 5138 2184 
L 5138 3728 
z
M 356 3828 
L 775 3766 
Q 681 3009 500 2166 
Q 325 2209 81 2266 
Q 231 2909 356 3828 
z
" transform="scale(0.015625)"/>
        <path id="MicrosoftYaHei-b79" d="M 2463 4403 
L 2463 4878 
L 5850 4878 
L 5850 166 
Q 5850 -728 4994 -728 
Q 4606 -728 4000 -716 
Q 3969 -503 3900 -197 
Q 4475 -234 4894 -234 
Q 5350 -234 5350 241 
L 5350 4403 
L 2463 4403 
z
M 575 4053 
L 1075 4053 
L 1075 -797 
L 575 -797 
L 575 4053 
z
M 856 5028 
L 1213 5347 
Q 1631 4953 2094 4472 
L 1688 4116 
Q 1256 4609 856 5028 
z
" transform="scale(0.015625)"/>
        <path id="MicrosoftYaHei-790" d="M 194 4241 
L 3194 4241 
Q 2878 4841 2700 5116 
L 3188 5347 
Q 3363 5078 3713 4472 
L 3256 4241 
L 6219 4241 
L 6219 3766 
L 2428 3766 
Q 2406 3197 2381 2797 
L 5400 2797 
Q 5325 1441 5238 441 
Q 5169 -691 4138 -691 
Q 3663 -691 2869 -641 
Q 2838 -403 2775 -66 
Q 3569 -172 4063 -172 
Q 4638 -172 4706 509 
Q 4781 1253 4838 2328 
L 2347 2328 
Q 2172 266 438 -872 
Q 269 -672 56 -447 
Q 1706 641 1825 2466 
Q 1869 2959 1897 3766 
L 194 3766 
L 194 4241 
z
" transform="scale(0.015625)"/>
        <path id="MicrosoftYaHei-694" d="M 94 4122 
L 3569 4122 
Q 3544 4700 3531 5347 
L 4063 5347 
Q 4059 4728 4081 4122 
L 6231 4122 
L 6231 3653 
L 4103 3653 
Q 4225 503 5156 -172 
Q 5494 -447 5631 -22 
Q 5725 303 5800 941 
Q 6094 834 6306 778 
Q 6188 47 6050 -403 
Q 5900 -834 5475 -834 
Q 5044 -834 4619 -397 
Q 3725 553 3597 3653 
L 94 3653 
L 94 4122 
z
M 119 159 
Q 825 244 1569 344 
L 1569 2097 
L 350 2097 
L 350 2566 
L 3288 2566 
L 3288 2097 
L 2081 2097 
L 2081 416 
Q 2809 519 3575 634 
Q 3563 391 3563 128 
Q 1681 -141 244 -366 
L 119 159 
z
M 4544 4978 
L 4844 5297 
Q 5294 4972 5756 4559 
L 5400 4191 
Q 5000 4597 4544 4978 
z
" transform="scale(0.015625)"/>
       </defs>
       <use xlink:href="#MicrosoftYaHei-6bd"/>
       <use xlink:href="#MicrosoftYaHei-b79" transform="translate(100 0)"/>
       <use xlink:href="#MicrosoftYaHei-790" transform="translate(200 0)"/>
       <use xlink:href="#MicrosoftYaHei-694" transform="translate(300 0)"/>
      </g>
     </g>
    </g>
   </g>
   <g id="matplotlib.axis_2">
    <g id="ytick_1">
     <g id="line2d_7">
      <path d="M 274.048 235.048 
C 274.048 229.95178 273.044156 224.905115 271.093917 220.196821 
C 269.143678 215.488528 266.284972 211.210172 262.6814 207.6066 
C 259.077828 204.003028 254.799472 201.144322 250.091179 199.194083 
C 245.382885 197.243844 240.33622 196.24 235.24 196.24 
C 230.14378 196.24 225.097115 197.243844 220.388821 199.194083 
C 215.680528 201.144322 211.402172 204.003028 207.7986 207.6066 
C 204.195028 211.210172 201.336322 215.488528 199.386083 220.196821 
C 197.435844 224.905115 196.432 229.95178 196.432 235.048 
C 196.432 240.14422 197.435844 245.190885 199.386083 249.899179 
C 201.336322 254.607472 204.195028 258.885828 207.7986 262.4894 
C 211.402172 266.092972 215.680528 268.951678 220.388821 270.901917 
C 225.097115 272.852156 230.14378 273.856 235.24 273.856 
C 240.33622 273.856 245.382885 272.852156 250.091179 270.901917 
C 254.799472 268.951678 259.077828 266.092972 262.6814 262.4894 
C 266.284972 258.885828 269.143678 254.607472 271.093917 249.899179 
C 273.044156 245.190885 274.048 240.14422 274.048 235.048 
" clip-path="url(#p9fd6de5eec)" style="fill: none; stroke: #b0b0b0; stroke-width: 0.8; stroke-linecap: square"/>
     </g>
     <g id="text_7">
      <!-- 0.2 -->
      <g transform="translate(271.093917 217.662642) scale(0.1 -0.1)">
       <defs>
        <path id="MicrosoftYaHei-16" d="M 284 2325 
Q 284 3606 709 4264 
Q 1134 4922 1941 4922 
Q 3478 4922 3478 2441 
Q 3478 1216 3045 567 
Q 2613 -81 1831 -81 
Q 1094 -81 689 534 
Q 284 1150 284 2325 
z
M 909 2353 
Q 909 425 1888 425 
Q 2850 425 2850 2384 
Q 2850 4413 1906 4413 
Q 909 4413 909 2353 
z
" transform="scale(0.015625)"/>
        <path id="MicrosoftYaHei-14" d="M 372 322 
Q 372 491 487 606 
Q 603 722 775 722 
Q 950 722 1065 605 
Q 1181 488 1181 322 
Q 1181 159 1065 42 
Q 950 -75 772 -75 
Q 600 -75 486 42 
Q 372 159 372 322 
z
" transform="scale(0.015625)"/>
        <path id="MicrosoftYaHei-18" d="M 2666 3572 
Q 2666 3963 2419 4186 
Q 2172 4409 1747 4409 
Q 1447 4409 1140 4256 
Q 834 4103 569 3819 
L 569 4413 
Q 806 4659 1107 4790 
Q 1409 4922 1816 4922 
Q 2472 4922 2872 4570 
Q 3272 4219 3272 3619 
Q 3272 3084 3026 2693 
Q 2781 2303 2188 1894 
Q 1581 1475 1376 1294 
Q 1172 1113 1090 947 
Q 1009 781 1009 544 
L 3416 544 
L 3416 0 
L 372 0 
L 372 241 
Q 372 659 486 951 
Q 600 1244 862 1520 
Q 1125 1797 1681 2184 
Q 2250 2584 2458 2886 
Q 2666 3188 2666 3572 
z
" transform="scale(0.015625)"/>
       </defs>
       <use xlink:href="#MicrosoftYaHei-16"/>
       <use xlink:href="#MicrosoftYaHei-14" transform="translate(58.640625 0)"/>
       <use xlink:href="#MicrosoftYaHei-18" transform="translate(82.71875 0)"/>
      </g>
     </g>
    </g>
    <g id="ytick_2">
     <g id="line2d_8">
      <path d="M 312.856 235.048 
C 312.856 224.85556 310.848312 214.762229 306.947834 205.345643 
C 303.047356 195.929056 297.329943 187.372343 290.1228 180.1652 
C 282.915657 172.958057 274.358944 167.240644 264.942357 163.340166 
C 255.525771 159.439688 245.43244 157.432 235.24 157.432 
C 225.04756 157.432 214.954229 159.439688 205.537643 163.340166 
C 196.121056 167.240644 187.564343 172.958057 180.3572 180.1652 
C 173.150057 187.372343 167.432644 195.929056 163.532166 205.345643 
C 159.631688 214.762229 157.624 224.85556 157.624 235.048 
C 157.624 245.24044 159.631688 255.333771 163.532166 264.750357 
C 167.432644 274.166944 173.150057 282.723657 180.3572 289.9308 
C 187.564343 297.137943 196.121056 302.855356 205.537643 306.755834 
C 214.954229 310.656312 225.04756 312.664 235.24 312.664 
C 245.43244 312.664 255.525771 310.656312 264.942357 306.755834 
C 274.358944 302.855356 282.915657 297.137943 290.1228 289.9308 
C 297.329943 282.723657 303.047356 274.166944 306.947834 264.750357 
C 310.848312 255.333771 312.856 245.24044 312.856 235.048 
" clip-path="url(#p9fd6de5eec)" style="fill: none; stroke: #b0b0b0; stroke-width: 0.8; stroke-linecap: square"/>
     </g>
     <g id="text_8">
      <!-- 0.4 -->
      <g transform="translate(306.947834 202.811463) scale(0.1 -0.1)">
       <defs>
        <path id="MicrosoftYaHei-1a" d="M 2906 4841 
L 2906 1644 
L 3631 1644 
L 3631 1138 
L 2906 1138 
L 2906 0 
L 2313 0 
L 2313 1138 
L 53 1138 
L 53 1616 
Q 656 2294 1265 3178 
Q 1875 4063 2272 4841 
L 2906 4841 
z
M 741 1644 
L 2313 1644 
L 2313 3950 
Q 1988 3366 1616 2817 
Q 1244 2269 741 1644 
z
" transform="scale(0.015625)"/>
       </defs>
       <use xlink:href="#MicrosoftYaHei-16"/>
       <use xlink:href="#MicrosoftYaHei-14" transform="translate(58.640625 0)"/>
       <use xlink:href="#MicrosoftYaHei-1a" transform="translate(82.71875 0)"/>
      </g>
     </g>
    </g>
    <g id="ytick_3">
     <g id="line2d_9">
      <path d="M 351.664 235.048 
C 351.664 219.75934 348.652467 204.619344 342.801751 190.494464 
C 336.951034 176.369584 328.374915 163.534515 317.5642 152.7238 
C 306.753485 141.913085 293.918416 133.336966 279.793536 127.486249 
C 265.668656 121.635533 250.52866 118.624 235.24 118.624 
C 219.95134 118.624 204.811344 121.635533 190.686464 127.486249 
C 176.561584 133.336966 163.726515 141.913085 152.9158 152.7238 
C 142.105085 163.534515 133.528966 176.369584 127.678249 190.494464 
C 121.827533 204.619344 118.816 219.75934 118.816 235.048 
C 118.816 250.33666 121.827533 265.476656 127.678249 279.601536 
C 133.528966 293.726416 142.105085 306.561485 152.9158 317.3722 
C 163.726515 328.182915 176.561584 336.759034 190.686464 342.609751 
C 204.811344 348.460467 219.95134 351.472 235.24 351.472 
C 250.52866 351.472 265.668656 348.460467 279.793536 342.609751 
C 293.918416 336.759034 306.753485 328.182915 317.5642 317.3722 
C 328.374915 306.561485 336.951034 293.726416 342.801751 279.601536 
C 348.652467 265.476656 351.664 250.33666 351.664 235.048 
" clip-path="url(#p9fd6de5eec)" style="fill: none; stroke: #b0b0b0; stroke-width: 0.8; stroke-linecap: square"/>
     </g>
     <g id="text_9">
      <!-- 0.6 -->
      <g transform="translate(342.801751 187.960284) scale(0.1 -0.1)">
       <defs>
        <path id="MicrosoftYaHei-1c" d="M 3181 4219 
Q 2803 4413 2391 4413 
Q 1763 4413 1381 3866 
Q 1000 3319 994 2372 
L 1009 2372 
Q 1353 3038 2106 3038 
Q 2734 3038 3109 2628 
Q 3484 2219 3484 1541 
Q 3484 831 3051 375 
Q 2619 -81 1947 -81 
Q 1209 -81 789 495 
Q 369 1072 369 2131 
Q 369 3413 920 4167 
Q 1472 4922 2372 4922 
Q 2888 4922 3181 4781 
L 3181 4219 
z
M 1031 1584 
Q 1031 1106 1286 765 
Q 1541 425 1963 425 
Q 2363 425 2613 719 
Q 2863 1013 2863 1475 
Q 2863 1975 2627 2253 
Q 2391 2531 1956 2531 
Q 1544 2531 1287 2250 
Q 1031 1969 1031 1584 
z
" transform="scale(0.015625)"/>
       </defs>
       <use xlink:href="#MicrosoftYaHei-16"/>
       <use xlink:href="#MicrosoftYaHei-14" transform="translate(58.640625 0)"/>
       <use xlink:href="#MicrosoftYaHei-1c" transform="translate(82.71875 0)"/>
      </g>
     </g>
    </g>
    <g id="ytick_4">
     <g id="line2d_10">
      <path d="M 390.472 235.048 
C 390.472 214.663121 386.456623 194.476458 378.655668 175.643285 
C 370.854712 156.810113 359.419886 139.696687 345.0056 125.2824 
C 330.591313 110.868114 313.477887 99.433288 294.644715 91.632332 
C 275.811542 83.831377 255.624879 79.816 235.24 79.816 
C 214.855121 79.816 194.668458 83.831377 175.835285 91.632332 
C 157.002113 99.433288 139.888687 110.868114 125.4744 125.2824 
C 111.060114 139.696687 99.625288 156.810113 91.824332 175.643285 
C 84.023377 194.476458 80.008 214.663121 80.008 235.048 
C 80.008 255.432879 84.023377 275.619542 91.824332 294.452715 
C 99.625288 313.285887 111.060114 330.399313 125.4744 344.8136 
C 139.888687 359.227886 157.002113 370.662712 175.835285 378.463668 
C 194.668458 386.264623 214.855121 390.28 235.24 390.28 
C 255.624879 390.28 275.811542 386.264623 294.644715 378.463668 
C 313.477887 370.662712 330.591313 359.227886 345.0056 344.8136 
C 359.419886 330.399313 370.854712 313.285887 378.655668 294.452715 
C 386.456623 275.619542 390.472 255.432879 390.472 235.048 
" clip-path="url(#p9fd6de5eec)" style="fill: none; stroke: #b0b0b0; stroke-width: 0.8; stroke-linecap: square"/>
     </g>
     <g id="text_10">
      <!-- 0.8 -->
      <g transform="translate(378.655668 173.109106) scale(0.1 -0.1)">
       <defs>
        <path id="MicrosoftYaHei-1e" d="M 306 1350 
Q 306 1769 556 2122 
Q 806 2475 1200 2625 
Q 884 2803 700 3081 
Q 516 3359 516 3684 
Q 516 4028 692 4312 
Q 869 4597 1183 4759 
Q 1497 4922 1875 4922 
Q 2256 4922 2572 4761 
Q 2888 4600 3063 4315 
Q 3238 4031 3238 3684 
Q 3238 3366 3058 3086 
Q 2878 2806 2559 2625 
Q 2953 2472 3200 2119 
Q 3447 1766 3447 1350 
Q 3447 938 3250 611 
Q 3053 284 2690 103 
Q 2328 -78 1875 -78 
Q 1425 -78 1065 103 
Q 706 284 506 612 
Q 306 941 306 1350 
z
M 906 1378 
Q 906 947 1172 687 
Q 1438 428 1878 428 
Q 2309 428 2582 692 
Q 2856 956 2856 1378 
Q 2856 1778 2579 2051 
Q 2303 2325 1878 2325 
Q 1456 2325 1181 2058 
Q 906 1791 906 1378 
z
M 1081 3634 
Q 1081 3309 1312 3076 
Q 1544 2844 1878 2844 
Q 2206 2844 2445 3078 
Q 2684 3313 2684 3634 
Q 2684 3963 2454 4191 
Q 2225 4419 1878 4419 
Q 1534 4419 1307 4195 
Q 1081 3972 1081 3634 
z
" transform="scale(0.015625)"/>
       </defs>
       <use xlink:href="#MicrosoftYaHei-16"/>
       <use xlink:href="#MicrosoftYaHei-14" transform="translate(58.640625 0)"/>
       <use xlink:href="#MicrosoftYaHei-1e" transform="translate(82.71875 0)"/>
      </g>
     </g>
    </g>
    <g id="ytick_5">
     <g id="line2d_11">
      <path d="M 429.28 235.048 
C 429.28 209.566901 424.260779 184.333573 414.509584 160.792107 
C 404.75839 137.250641 390.464858 115.858858 372.447 97.841 
C 354.429142 79.823142 333.037359 65.52961 309.495893 55.778416 
C 285.954427 46.027221 260.721099 41.008 235.24 41.008 
C 209.758901 41.008 184.525573 46.027221 160.984107 55.778416 
C 137.442641 65.52961 116.050858 79.823142 98.033 97.841 
C 80.015142 115.858858 65.72161 137.250641 55.970416 160.792107 
C 46.219221 184.333573 41.2 209.566901 41.2 235.048 
C 41.2 260.529099 46.219221 285.762427 55.970416 309.303893 
C 65.72161 332.845359 80.015142 354.237142 98.033 372.255 
C 116.050858 390.272858 137.442641 404.56639 160.984107 414.317584 
C 184.525573 424.068779 209.758901 429.088 235.24 429.088 
C 260.721099 429.088 285.954427 424.068779 309.495893 414.317584 
C 333.037359 404.56639 354.429142 390.272858 372.447 372.255 
C 390.464858 354.237142 404.75839 332.845359 414.509584 309.303893 
C 424.260779 285.762427 429.28 260.529099 429.28 235.048 
" clip-path="url(#p9fd6de5eec)" style="fill: none; stroke: #b0b0b0; stroke-width: 0.8; stroke-linecap: square"/>
     </g>
     <g id="text_11">
      <!-- 1.0 -->
      <g transform="translate(414.509584 158.257927) scale(0.1 -0.1)">
       <defs>
        <path id="MicrosoftYaHei-17" d="M 1781 0 
L 1781 4141 
Q 1638 3997 1295 3819 
Q 953 3641 663 3569 
L 663 4169 
Q 1047 4275 1484 4508 
Q 1922 4741 2156 4947 
L 2388 4947 
L 2388 0 
L 1781 0 
z
" transform="scale(0.015625)"/>
       </defs>
       <use xlink:href="#MicrosoftYaHei-17"/>
       <use xlink:href="#MicrosoftYaHei-14" transform="translate(58.640625 0)"/>
       <use xlink:href="#MicrosoftYaHei-16" transform="translate(82.71875 0)"/>
      </g>
     </g>
    </g>
   </g>
   <g id="line2d_12">
    <path d="M 371.068 235.048 
L 293.452 134.221858 
L 167.326 117.417501 
L 80.008 235.048 
L 157.624 369.482855 
L 332.26 403.091569 
L 371.068 235.048 
" clip-path="url(#p9fd6de5eec)" style="fill: none; stroke: #2563eb; stroke-width: 2; stroke-linecap: square"/>
    <defs>
     <path id="mc97e2d980b" d="M 0 3 
C 0.795609 3 1.55874 2.683901 2.12132 2.12132 
C 2.683901 1.55874 3 0.795609 3 0 
C 3 -0.795609 2.683901 -1.55874 2.12132 -2.12132 
C 1.55874 -2.683901 0.795609 -3 0 -3 
C -0.795609 -3 -1.55874 -2.683901 -2.12132 -2.12132 
C -2.683901 -1.55874 -3 -0.795609 -3 0 
C -3 0.795609 -2.683901 1.55874 -2.12132 2.12132 
C -1.55874 2.683901 -0.795609 3 0 3 
z
" style="stroke: #2563eb"/>
    </defs>
    <g clip-path="url(#p9fd6de5eec)">
     <use xlink:href="#mc97e2d980b" x="371.068" y="235.048" style="fill: #2563eb; stroke: #2563eb"/>
     <use xlink:href="#mc97e2d980b" x="293.452" y="134.221858" style="fill: #2563eb; stroke: #2563eb"/>
     <use xlink:href="#mc97e2d980b" x="167.326" y="117.417501" style="fill: #2563eb; stroke: #2563eb"/>
     <use xlink:href="#mc97e2d980b" x="80.008" y="235.048" style="fill: #2563eb; stroke: #2563eb"/>
     <use xlink:href="#mc97e2d980b" x="157.624" y="369.482855" style="fill: #2563eb; stroke: #2563eb"/>
     <use xlink:href="#mc97e2d980b" x="332.26" y="403.091569" style="fill: #2563eb; stroke: #2563eb"/>
     <use xlink:href="#mc97e2d980b" x="371.068" y="235.048" style="fill: #2563eb; stroke: #2563eb"/>
    </g>
   </g>
   <g id="line2d_13">
    <path d="M 429.28 235.048 
L 274.048 167.830572 
L 157.624 100.613145 
L 138.22 235.048 
L 196.432 302.265428 
L 235.24 235.048 
L 429.28 235.048 
" clip-path="url(#p9fd6de5eec)" style="fill: none; stroke: #f59e0b; stroke-width: 2; stroke-linecap: square"/>
    <defs>
     <path id="m4a82619fa2" d="M 0 3 
C 0.795609 3 1.55874 2.683901 2.12132 2.12132 
C 2.683901 1.55874 3 0.795609 3 0 
C 3 -0.795609 2.683901 -1.55874 2.12132 -2.12132 
C 1.55874 -2.683901 0.795609 -3 0 -3 
C -0.795609 -3 -1.55874 -2.683901 -2.12132 -2.12132 
C -2.683901 -1.55874 -3 -0.795609 -3 0 
C -3 0.795609 -2.683901 1.55874 -2.12132 2.12132 
C -1.55874 2.683901 -0.795609 3 0 3 
z
" style="stroke: #f59e0b"/>
    </defs>
    <g clip-path="url(#p9fd6de5eec)">
     <use xlink:href="#m4a82619fa2" x="429.28" y="235.048" style="fill: #f59e0b; stroke: #f59e0b"/>
     <use xlink:href="#m4a82619fa2" x="274.048" y="167.830572" style="fill: #f59e0b; stroke: #f59e0b"/>
     <use xlink:href="#m4a82619fa2" x="157.624" y="100.613145" style="fill: #f59e0b; stroke: #f59e0b"/>
     <use xlink:href="#m4a82619fa2" x="138.22" y="235.048" style="fill: #f59e0b; stroke: #f59e0b"/>
     <use xlink:href="#m4a82619fa2" x="196.432" y="302.265428" style="fill: #f59e0b; stroke: #f59e0b"/>
     <use xlink:href="#m4a82619fa2" x="235.24" y="235.048" style="fill: #f59e0b; stroke: #f59e0b"/>
     <use xlink:href="#m4a82619fa2" x="429.28" y="235.048" style="fill: #f59e0b; stroke: #f59e0b"/>
    </g>
   </g>
   <g id="patch_5">
    <path d="M 429.28 235.048 
C 429.28 209.566901 424.260779 184.333573 414.509584 160.792107 
C 404.75839 137.250641 390.464858 115.858858 372.447 97.841 
C 354.429142 79.823142 333.037359 65.52961 309.495893 55.778416 
C 285.954427 46.027221 260.721099 41.008 235.24 41.008 
C 209.758901 41.008 184.525573 46.027221 160.984107 55.778416 
C 137.442641 65.52961 116.050858 79.823142 98.033 97.841 
C 80.015142 115.858858 65.72161 137.250641 55.970416 160.792107 
C 46.219221 184.333573 41.2 209.566901 41.2 235.048 
C 41.2 260.529099 46.219221 285.762427 55.970416 309.303893 
C 65.72161 332.845359 80.015142 354.237142 98.033 372.255 
C 116.050858 390.272858 137.442641 404.56639 160.984107 414.317584 
C 184.525573 424.068779 209.758901 429.088 235.24 429.088 
C 260.721099 429.088 285.954427 424.068779 309.495893 414.317584 
C 333.037359 404.56639 354.429142 390.272858 372.447 372.255 
C 390.464858 354.237142 404.75839 332.845359 414.509584 309.303893 
C 424.260779 285.762427 429.28 260.529099 429.28 235.048 
" style="fill: none; stroke: #000000; stroke-width: 0.8; stroke-linejoin: miter; stroke-linecap: square"/>
   </g>
   <g id="text_12">
    <!-- 传感器选型雷达图（示意） -->
    <g transform="translate(151.24 21.008) scale(0.14 -0.14)">
     <defs>
      <path id="MicrosoftYaHei-Bold-46d" d="M 1306 5347 
L 2131 5128 
Q 1891 4375 1600 3681 
L 1600 -853 
L 806 -853 
L 806 2041 
Q 556 1597 281 1178 
Q 206 1672 75 2347 
Q 856 3609 1306 5347 
z
M 2325 334 
L 2738 1009 
Q 3278 816 4028 516 
L 4819 1297 
L 2450 1297 
L 2450 1978 
Q 2550 2263 2647 2559 
L 1875 2559 
L 1875 3272 
L 2866 3272 
L 3025 3828 
L 2175 3828 
L 2175 4528 
L 3209 4528 
L 3388 5278 
L 4319 5278 
L 4134 4528 
L 6075 4528 
L 6075 3828 
L 3950 3828 
L 3794 3272 
L 6300 3272 
L 6300 2559 
L 3578 2559 
Q 3488 2269 3394 1997 
L 6019 1997 
L 6019 1341 
L 4872 169 
L 5650 -159 
L 5206 -897 
Q 4088 -359 2325 334 
z
" transform="scale(0.015625)"/>
      <path id="MicrosoftYaHei-Bold-6c0" d="M 631 4766 
L 3769 4766 
Q 3756 5034 3750 5328 
L 4538 5328 
Q 4544 5034 4559 4766 
L 5006 4766 
Q 4903 4963 4806 5122 
L 5506 5316 
Q 5700 4981 5816 4766 
L 6225 4766 
L 6225 4053 
L 4613 4053 
Q 4672 3406 4778 2934 
Q 5050 3341 5275 3816 
L 5919 3441 
Q 5516 2691 5059 2113 
Q 5206 1828 5350 1828 
Q 5472 1828 5531 2051 
Q 5591 2275 5663 2628 
Q 6006 2416 6338 2278 
Q 6169 1572 6019 1326 
Q 5869 1081 5616 1000 
Q 5988 516 6313 -22 
L 5613 -447 
Q 5269 184 4894 728 
L 5313 966 
Q 4838 988 4494 1475 
Q 4278 1263 4050 1084 
Q 3841 1344 3669 1525 
L 3669 1403 
L 3309 1403 
Q 3634 1019 3938 628 
L 3313 191 
Q 3050 597 2625 1128 
L 3053 1403 
L 1613 1403 
L 1613 2947 
L 3669 2947 
L 3669 1725 
Q 3922 1925 4150 2159 
Q 3916 2816 3813 4053 
L 1413 4053 
L 1413 3266 
Q 1413 1950 972 1144 
L 1525 941 
Q 1231 209 838 -578 
L 113 -234 
Q 438 397 631 897 
Q 338 1188 75 1384 
Q 631 2022 631 3347 
L 631 4766 
z
M 2981 1966 
L 2981 2384 
L 2300 2384 
L 2300 1966 
L 2981 1966 
z
M 3681 3222 
L 1594 3222 
L 1594 3778 
L 3681 3778 
L 3681 3222 
z
M 4244 791 
Q 4638 547 5044 391 
Q 4781 -409 4517 -571 
Q 4253 -734 3844 -734 
L 2525 -734 
Q 1594 -734 1594 53 
L 1594 1059 
L 2419 1059 
L 2419 266 
Q 2419 -28 2763 -28 
L 3588 -28 
Q 3909 -28 4040 112 
Q 4172 253 4244 791 
z
" transform="scale(0.015625)"/>
      <path id="MicrosoftYaHei-Bold-597" d="M 506 5059 
L 2956 5059 
L 2956 3297 
L 506 3297 
L 506 5059 
z
M 2194 3934 
L 2194 4422 
L 1269 4422 
L 1269 3934 
L 2194 3934 
z
M 3444 5059 
L 5888 5059 
L 5888 3297 
L 3444 3297 
L 3444 5059 
z
M 5125 3934 
L 5125 4422 
L 4213 4422 
L 4213 3934 
L 5125 3934 
z
M 3438 -797 
L 3438 1228 
L 4738 1228 
Q 3700 1456 3194 1984 
Q 2763 1466 1522 1228 
L 2950 1228 
L 2950 -809 
L 2225 -809 
L 2225 -572 
L 1231 -572 
L 1231 -809 
L 506 -809 
L 506 1097 
Q 372 1084 231 1078 
Q 194 1378 100 1716 
Q 2025 1766 2428 2253 
L 181 2253 
L 181 2891 
L 2728 2891 
Q 2756 3034 2769 3203 
L 3644 3203 
Q 3628 3038 3600 2891 
L 4444 2891 
L 4344 3134 
L 5144 3234 
L 5288 2891 
L 6231 2891 
L 6231 2253 
L 3772 2253 
Q 4438 1738 6306 1709 
Q 6200 1359 6144 1066 
Q 6013 1069 5888 1078 
L 5888 -809 
L 5163 -809 
L 5163 -572 
L 4163 -572 
L 4163 -797 
L 3438 -797 
z
M 5163 591 
L 4163 591 
L 4163 66 
L 5163 66 
L 5163 591 
z
M 2225 591 
L 1231 591 
L 1231 66 
L 2225 66 
L 2225 591 
z
" transform="scale(0.015625)"/>
      <path id="MicrosoftYaHei-Bold-af2" d="M 5419 2003 
Q 5781 1834 6169 1691 
Q 6059 981 5973 786 
Q 5888 591 5697 487 
Q 5506 384 5219 384 
L 4781 384 
Q 4038 384 4038 1216 
L 4038 2216 
L 3566 2216 
Q 3525 1400 3262 1004 
Q 3000 609 2481 291 
Q 2256 572 1919 909 
Q 2213 1084 2466 1364 
Q 2719 1644 2759 2216 
L 1869 2216 
L 1869 2953 
L 3694 2953 
L 3694 3647 
L 2841 3647 
Q 2722 3344 2606 3097 
Q 2300 3253 1906 3434 
Q 2263 4159 2550 5147 
L 3281 4909 
L 3109 4384 
L 3694 4384 
L 3694 5316 
L 4525 5316 
L 4525 4384 
L 5963 4384 
L 5963 3647 
L 4525 3647 
L 4525 2953 
L 6194 2953 
L 6194 2216 
L 4844 2216 
L 4844 1391 
Q 4844 1134 5031 1134 
L 5106 1134 
Q 5278 1134 5325 1254 
Q 5372 1375 5419 2003 
z
M 1025 5228 
Q 1494 4616 1869 4078 
L 1138 3584 
Q 756 4234 356 4816 
L 1025 5228 
z
M 6294 122 
Q 6131 -378 6031 -716 
L 3181 -697 
Q 1841 -697 1238 -103 
L 513 -841 
L 156 109 
Q 494 391 781 644 
L 781 2222 
L 200 2222 
L 200 3016 
L 1600 3016 
L 1600 638 
Q 2088 97 3131 97 
L 4409 91 
Q 5144 91 6294 122 
z
" transform="scale(0.015625)"/>
      <path id="MicrosoftYaHei-Bold-5b9" d="M 5963 5216 
L 5963 2547 
Q 5963 2141 5752 1928 
Q 5541 1716 5095 1700 
Q 4650 1684 4269 1684 
Q 4231 2059 4150 2447 
Q 4469 2428 4813 2428 
Q 5150 2428 5150 2709 
L 5150 5216 
L 5963 5216 
z
M 150 3491 
L 891 3491 
Q 900 3616 900 4341 
L 325 4341 
L 325 5066 
L 3625 5066 
L 3625 4341 
L 3113 4341 
L 3113 3491 
L 3750 3491 
L 3750 2766 
L 3113 2766 
L 3113 2091 
L 3656 2091 
L 3656 1441 
L 5781 1441 
L 5781 678 
L 3656 678 
L 3656 103 
L 6294 103 
L 6294 -647 
L 138 -647 
L 138 103 
L 2763 103 
L 2763 678 
L 650 678 
L 650 1441 
L 2763 1441 
L 2763 1766 
L 2350 1766 
L 2350 2766 
L 1559 2766 
Q 1375 2016 888 1522 
Q 675 1697 275 2009 
Q 584 2334 741 2766 
L 150 2766 
L 150 3491 
z
M 1663 3491 
L 2350 3491 
L 2350 4341 
L 1669 4341 
Q 1669 3753 1663 3491 
z
M 3900 4866 
L 4650 4866 
L 4650 2753 
L 3900 2753 
L 3900 4866 
z
" transform="scale(0.015625)"/>
      <path id="MicrosoftYaHei-Bold-b79" d="M 275 4209 
L 2819 4209 
L 2819 4503 
L 588 4503 
L 588 5109 
L 5813 5109 
L 5813 4503 
L 3581 4503 
L 3581 4209 
L 6125 4209 
L 6125 2853 
L 5400 2853 
L 5400 3603 
L 3581 3603 
L 3581 2272 
L 2819 2272 
L 2819 3603 
L 1000 3603 
L 1000 2853 
L 275 2853 
L 275 4209 
z
M 1163 3347 
L 2538 3347 
L 2538 2934 
L 1163 2934 
L 1163 3347 
z
M 3875 3347 
L 5238 3347 
L 5238 2934 
L 3875 2934 
L 3875 3347 
z
M 913 2672 
L 2538 2672 
L 2538 2259 
L 913 2259 
L 913 2672 
z
M 3875 2672 
L 5488 2672 
L 5488 2259 
L 3875 2259 
L 3875 2672 
z
M 694 -847 
L 694 2009 
L 5700 2009 
L 5700 -847 
L 4881 -847 
L 4881 -578 
L 1519 -578 
L 1519 -847 
L 694 -847 
z
M 1519 997 
L 2788 997 
L 2788 1422 
L 1519 1422 
L 1519 997 
z
M 4881 1422 
L 3613 1422 
L 3613 997 
L 4881 997 
L 4881 1422 
z
M 1519 9 
L 2788 9 
L 2788 434 
L 1519 434 
L 1519 9 
z
M 3613 9 
L 4881 9 
L 4881 434 
L 3613 434 
L 3613 9 
z
" transform="scale(0.015625)"/>
      <path id="MicrosoftYaHei-Bold-ad6" d="M 3169 153 
Q 4625 122 6306 191 
Q 6144 -241 6000 -672 
Q 4244 -678 2744 -641 
Q 1781 -591 1231 9 
Q 988 -253 469 -828 
L 94 97 
Q 281 297 800 759 
L 800 2328 
L 175 2328 
L 175 3153 
L 1638 3153 
L 1638 691 
Q 2181 172 3169 153 
z
M 1875 4003 
L 3369 4003 
Q 3400 4547 3400 5278 
L 4269 5278 
Q 4269 4566 4244 4003 
L 6106 4003 
L 6106 3234 
L 4188 3234 
Q 4163 2991 4125 2791 
Q 5188 1928 6063 1172 
L 5419 441 
Q 4650 1191 3838 1866 
Q 3481 1191 2475 353 
Q 2138 759 1819 1059 
Q 2950 1922 3144 2572 
Q 3238 2791 3300 3234 
L 1875 3234 
L 1875 4003 
z
M 944 5278 
Q 1413 4672 1800 4109 
L 1050 3603 
Q 769 4109 269 4859 
L 944 5278 
z
" transform="scale(0.015625)"/>
      <path id="MicrosoftYaHei-Bold-5a2" d="M 369 -841 
L 369 5072 
L 6019 5072 
L 6019 -834 
L 5156 -834 
L 5156 -591 
L 1231 -591 
L 1231 -841 
L 369 -841 
z
M 4875 3978 
L 4875 3466 
Q 4547 3022 4006 2678 
Q 4513 2541 5156 2463 
L 5156 4316 
L 3256 4316 
Q 3141 4144 3009 3978 
L 4875 3978 
z
M 2394 4316 
L 1231 4316 
L 1231 3231 
Q 2016 3747 2394 4316 
z
M 3228 2959 
Q 3666 3163 3919 3416 
L 2575 3416 
Q 2828 3156 3228 2959 
z
M 1644 2747 
Q 1481 2925 1231 3147 
L 1231 2400 
Q 1950 2522 2500 2688 
Q 2266 2863 2078 3063 
Q 1872 2900 1644 2747 
z
M 1669 1303 
Q 3319 1084 4775 841 
L 4600 166 
L 5156 166 
L 5156 2388 
Q 5019 2159 4825 1822 
Q 3897 1978 3219 2275 
Q 2872 2134 2472 2019 
Q 3509 1888 4500 1722 
L 4375 1128 
Q 3344 1309 2063 1484 
L 2159 1934 
Q 1856 1859 1525 1797 
Q 1409 2059 1231 2347 
L 1231 166 
L 4569 166 
Q 3297 425 1494 647 
L 1669 1303 
z
" transform="scale(0.015625)"/>
      <path id="MicrosoftYaHei-Bold-363" d="M 5197 -1088 
Q 4056 184 4056 1881 
Q 4056 3616 5203 4838 
L 6034 4838 
Q 4922 3503 4922 1888 
Q 4922 266 6028 -1088 
L 5197 -1088 
z
" transform="scale(0.015625)"/>
      <path id="MicrosoftYaHei-Bold-920" d="M 769 4966 
L 5669 4966 
L 5669 4078 
L 769 4078 
L 769 4966 
z
M 206 3259 
L 6206 3259 
L 6206 2372 
L 3794 2372 
L 3794 303 
Q 3794 -216 3612 -430 
Q 3431 -644 3173 -711 
Q 2916 -778 1850 -778 
Q 1744 -241 1638 159 
Q 2116 109 2431 109 
Q 2850 109 2850 447 
L 2850 2372 
L 206 2372 
L 206 3259 
z
M 1438 2103 
L 2244 1678 
Q 1488 459 825 -353 
Q 513 -97 88 197 
Q 850 1097 1438 2103 
z
M 4869 2072 
Q 5606 1178 6319 203 
Q 5981 -16 5506 -341 
Q 4944 578 4175 1609 
L 4869 2072 
z
" transform="scale(0.015625)"/>
      <path id="MicrosoftYaHei-Bold-6bf" d="M 175 3897 
L 1622 3897 
Q 1497 4072 1400 4184 
L 1891 4366 
L 488 4366 
L 488 4903 
L 2731 4903 
L 2569 5272 
L 3631 5366 
Q 3716 5178 3813 4903 
L 5881 4903 
L 5881 4366 
L 4397 4366 
L 4963 4166 
L 4728 3897 
L 6238 3897 
L 6238 3334 
L 175 3334 
L 175 3897 
z
M 2578 3897 
L 3794 3897 
Q 3988 4184 4097 4366 
L 2219 4366 
Q 2416 4116 2578 3897 
z
M 794 966 
L 794 3053 
L 5600 3053 
L 5600 966 
L 3441 966 
Q 3734 734 3906 572 
L 3319 41 
Q 3069 341 2650 722 
L 2934 966 
L 794 966 
z
M 4794 2541 
L 1600 2541 
L 1600 2234 
L 4794 2234 
L 4794 2541 
z
M 4794 1478 
L 4794 1784 
L 1600 1784 
L 1600 1478 
L 4794 1478 
z
M 606 859 
L 1350 572 
Q 1094 -78 781 -634 
L 88 -291 
Q 425 322 606 859 
z
M 4194 728 
Q 4488 559 4975 366 
Q 4806 -363 4540 -548 
Q 4275 -734 3819 -734 
L 2544 -734 
Q 1594 -734 1594 28 
L 1594 834 
L 2419 834 
L 2419 253 
Q 2419 -47 2756 -47 
L 3550 -47 
Q 3888 -47 4016 79 
Q 4144 206 4194 728 
z
M 5688 834 
Q 6100 309 6338 -166 
L 5644 -578 
Q 5331 9 5000 466 
L 5688 834 
z
" transform="scale(0.015625)"/>
      <path id="MicrosoftYaHei-Bold-364" d="M 1191 -1088 
L 359 -1088 
Q 1472 238 1472 1863 
Q 1472 3478 366 4838 
L 1197 4838 
Q 2338 3572 2338 1863 
Q 2338 125 1191 -1088 
z
" transform="scale(0.015625)"/>
     </defs>
     <use xlink:href="#MicrosoftYaHei-Bold-46d"/>
     <use xlink:href="#MicrosoftYaHei-Bold-6c0" transform="translate(100 0)"/>
     <use xlink:href="#MicrosoftYaHei-Bold-597" transform="translate(200 0)"/>
     <use xlink:href="#MicrosoftYaHei-Bold-af2" transform="translate(300 0)"/>
     <use xlink:href="#MicrosoftYaHei-Bold-5b9" transform="translate(400 0)"/>
     <use xlink:href="#MicrosoftYaHei-Bold-b79" transform="translate(500 0)"/>
     <use xlink:href="#MicrosoftYaHei-Bold-ad6" transform="translate(600 0)"/>
     <use xlink:href="#MicrosoftYaHei-Bold-5a2" transform="translate(700 0)"/>
     <use xlink:href="#MicrosoftYaHei-Bold-363" transform="translate(800 0)"/>
     <use xlink:href="#MicrosoftYaHei-Bold-920" transform="translate(900 0)"/>
     <use xlink:href="#MicrosoftYaHei-Bold-6bf" transform="translate(1000 0)"/>
     <use xlink:href="#MicrosoftYaHei-Bold-364" transform="translate(1100 0)"/>
    </g>
   </g>
   <g id="legend_1">
    <g id="line2d_14">
     <path d="M 458.704 16.064062 
L 468.704 16.064062 
L 478.704 16.064062 
" style="fill: none; stroke: #2563eb; stroke-width: 2; stroke-linecap: square"/>
     <g>
      <use xlink:href="#mc97e2d980b" x="468.704" y="16.064062" style="fill: #2563eb; stroke: #2563eb"/>
     </g>
    </g>
    <g id="text_13">
     <!-- 工业传感器 -->
     <g transform="translate(486.704 19.564062) scale(0.1 -0.1)">
      <defs>
       <path id="MicrosoftYaHei-657" d="M 181 97 
L 2919 97 
L 2919 4266 
L 538 4266 
L 538 4766 
L 5863 4766 
L 5863 4266 
L 3469 4266 
L 3469 97 
L 6213 97 
L 6213 -391 
L 181 -391 
L 181 97 
z
" transform="scale(0.015625)"/>
       <path id="MicrosoftYaHei-40f" d="M 119 47 
L 2125 47 
L 2125 5209 
L 2650 5209 
L 2650 47 
L 3744 47 
L 3744 5209 
L 4269 5209 
L 4269 47 
L 6294 47 
L 6294 -416 
L 119 -416 
L 119 47 
z
M 844 3984 
Q 1356 2778 1838 1422 
L 1325 1191 
Q 906 2509 388 3784 
L 844 3984 
z
M 4494 1366 
Q 5119 2691 5544 3928 
L 6050 3728 
Q 5469 2234 4944 1159 
L 4494 1366 
z
" transform="scale(0.015625)"/>
       <path id="MicrosoftYaHei-46e" d="M 2413 684 
L 2681 1053 
Q 3397 666 4056 278 
L 5269 1472 
L 2606 1472 
L 2606 1916 
Q 2731 2306 2847 2691 
L 1869 2691 
L 1869 3128 
L 2975 3128 
Q 3097 3550 3203 3959 
L 2175 3959 
L 2175 4397 
L 3316 4397 
Q 3425 4831 3519 5253 
L 4056 5253 
Q 3959 4838 3847 4397 
L 6050 4397 
L 6050 3959 
L 3734 3959 
Q 3625 3553 3503 3128 
L 6300 3128 
L 6300 2691 
L 3378 2691 
Q 3266 2306 3144 1909 
L 5906 1909 
L 5906 1453 
L 4481 22 
Q 4869 -209 5238 -447 
L 4913 -872 
Q 3594 34 2413 684 
z
M 88 2241 
Q 963 3528 1469 5297 
L 1975 5147 
Q 1741 4422 1475 3791 
L 1475 -803 
L 981 -803 
L 981 2763 
Q 663 2175 306 1691 
Q 213 1959 88 2241 
z
" transform="scale(0.015625)"/>
       <path id="MicrosoftYaHei-6df" d="M 3531 1422 
Q 4013 1741 4388 2131 
Q 4022 2909 3944 4147 
L 1213 4147 
L 1213 3322 
Q 1213 1803 463 872 
Q 331 1134 138 1347 
Q 763 2034 763 3328 
L 763 4547 
L 3922 4547 
Q 3903 4928 3900 5284 
L 4363 5284 
Q 4363 4928 4378 4547 
L 6200 4547 
L 6200 4147 
L 4400 4147 
Q 4466 3184 4728 2531 
Q 5150 3088 5394 3772 
L 5819 3559 
Q 5456 2741 4947 2103 
Q 5059 1922 5194 1778 
Q 5344 1622 5475 1622 
Q 5594 1622 5669 1822 
Q 5763 2084 5856 2522 
Q 6019 2434 6319 2322 
Q 6175 1766 6069 1503 
Q 5888 1066 5538 1066 
Q 5250 1066 4925 1366 
Q 4756 1522 4616 1725 
Q 4278 1375 3888 1091 
Q 3738 1259 3531 1422 
z
M 1638 2891 
L 3563 2891 
L 3563 1541 
L 2063 1541 
L 2063 1366 
L 1638 1366 
L 1638 2891 
z
M 1713 997 
L 2188 997 
L 2188 134 
Q 2188 -253 2588 -253 
L 3713 -253 
Q 4194 -253 4263 109 
Q 4313 316 4375 778 
Q 4588 691 4869 591 
Q 4788 166 4706 -103 
Q 4556 -691 3813 -691 
L 2488 -691 
Q 1713 -691 1713 78 
L 1713 997 
z
M 1444 3697 
L 3719 3697 
L 3719 3322 
L 1444 3322 
L 1444 3697 
z
M 844 1028 
L 1288 853 
Q 969 47 594 -534 
Q 438 -441 175 -297 
Q 581 291 844 1028 
z
M 3138 1916 
L 3138 2516 
L 2063 2516 
L 2063 1916 
L 3138 1916 
z
M 5113 634 
L 5463 884 
Q 5863 422 6275 -166 
L 5863 -459 
Q 5563 34 5113 634 
z
M 2706 1072 
L 3044 1328 
Q 3456 891 3781 491 
L 3388 191 
Q 3050 678 2706 1072 
z
M 5656 4866 
L 5350 4559 
Q 5081 4809 4763 5066 
L 5038 5353 
Q 5363 5116 5656 4866 
z
" transform="scale(0.015625)"/>
       <path id="MicrosoftYaHei-598" d="M 300 2691 
L 2825 2691 
Q 2922 2925 2950 3234 
L 3400 3172 
Q 3363 2909 3291 2691 
L 4653 2691 
Q 4403 2872 4125 3047 
L 4381 3328 
Q 4794 3084 5125 2841 
L 4984 2691 
L 6150 2691 
L 6150 2278 
L 3738 2278 
Q 4459 1572 6300 1609 
Q 6150 1353 6044 1128 
Q 5878 1141 5725 1156 
L 5725 -753 
L 5288 -753 
L 5288 -409 
L 3950 -409 
L 3950 -747 
L 3513 -747 
L 3513 1184 
L 5503 1184 
Q 3716 1425 3219 2278 
L 3106 2278 
Q 2756 1534 838 1184 
L 2838 1184 
L 2838 -747 
L 2400 -747 
L 2400 -409 
L 1081 -409 
L 1081 -753 
L 644 -753 
L 644 1147 
Q 478 1116 300 1084 
Q 206 1272 56 1528 
Q 2144 1797 2563 2278 
L 300 2278 
L 300 2691 
z
M 3506 4966 
L 5719 4966 
L 5719 3122 
L 5281 3122 
L 5281 3341 
L 3944 3341 
L 3944 3147 
L 3506 3147 
L 3506 4966 
z
M 638 4966 
L 2831 4966 
L 2831 3147 
L 2394 3147 
L 2394 3341 
L 1075 3341 
L 1075 3084 
L 638 3084 
L 638 4966 
z
M 5281 4578 
L 3944 4578 
L 3944 3728 
L 5281 3728 
L 5281 4578 
z
M 2394 4578 
L 1075 4578 
L 1075 3728 
L 2394 3728 
L 2394 4578 
z
M 5288 797 
L 3950 797 
L 3950 -22 
L 5288 -22 
L 5288 797 
z
M 2400 797 
L 1081 797 
L 1081 -22 
L 2400 -22 
L 2400 797 
z
" transform="scale(0.015625)"/>
      </defs>
      <use xlink:href="#MicrosoftYaHei-657"/>
      <use xlink:href="#MicrosoftYaHei-40f" transform="translate(100 0)"/>
      <use xlink:href="#MicrosoftYaHei-46e" transform="translate(200 0)"/>
      <use xlink:href="#MicrosoftYaHei-6df" transform="translate(300 0)"/>
      <use xlink:href="#MicrosoftYaHei-598" transform="translate(400 0)"/>
     </g>
    </g>
    <g id="line2d_15">
     <path d="M 458.704 31.962305 
L 468.704 31.962305 
L 478.704 31.962305 
" style="fill: none; stroke: #f59e0b; stroke-width: 2; stroke-linecap: square"/>
     <g>
      <use xlink:href="#m4a82619fa2" x="468.704" y="31.962305" style="fill: #f59e0b; stroke: #f59e0b"/>
     </g>
    </g>
    <g id="text_14">
     <!-- 摄影传感器 -->
     <g transform="translate(486.704 35.462305) scale(0.1 -0.1)">
      <defs>
       <path id="MicrosoftYaHei-761" d="M 1894 2391 
Q 2200 2403 2506 2419 
L 2506 4647 
L 1906 4647 
L 1906 5034 
L 6119 5034 
L 6119 4647 
L 5500 4647 
L 5500 2591 
Q 5866 2616 6231 2641 
Q 6219 2422 6219 2234 
L 5500 2197 
L 5500 1797 
L 5063 1797 
L 5063 2172 
Q 3516 2084 1969 1972 
L 1894 2391 
z
M 81 2041 
Q 453 2200 875 2406 
L 875 3741 
L 125 3741 
L 125 4178 
L 875 4178 
L 875 5316 
L 1331 5316 
L 1331 4178 
L 2038 4178 
L 2038 3741 
L 1331 3741 
L 1331 2634 
Q 1628 2784 1950 2959 
Q 1969 2647 2000 2459 
Q 1672 2291 1331 2113 
L 1331 -97 
Q 1331 -759 769 -772 
Q 544 -784 231 -778 
Q 206 -528 156 -259 
Q 456 -284 613 -284 
Q 875 -284 875 -47 
L 875 1875 
Q 516 1688 144 1491 
L 81 2041 
z
M 3913 1272 
L 3913 1641 
L 6050 1641 
L 6050 1272 
Q 5841 534 5344 22 
Q 5763 -266 6356 -403 
Q 6231 -628 6131 -834 
Q 5466 -641 5003 -275 
Q 4506 -647 3806 -859 
Q 3706 -666 3563 -459 
Q 4219 -284 4675 31 
Q 4228 534 4050 1272 
L 3913 1272 
z
M 1806 747 
L 2063 1066 
Q 2488 788 2888 509 
Q 3134 844 3281 1272 
L 1806 1272 
L 1806 1641 
L 3731 1641 
L 3731 1272 
Q 3544 706 3228 272 
Q 3481 88 3725 -91 
L 3438 -472 
Q 3188 -269 2938 -75 
Q 2459 -572 1769 -853 
Q 1656 -659 1494 -453 
Q 2156 -238 2597 181 
Q 2200 475 1806 747 
z
M 5063 2563 
L 5063 2972 
L 2944 2972 
L 2944 2441 
Q 4013 2500 5063 2563 
z
M 2944 3341 
L 5063 3341 
L 5063 3809 
L 2944 3809 
L 2944 3341 
z
M 2944 4178 
L 5063 4178 
L 5063 4647 
L 2944 4647 
L 2944 4178 
z
M 5600 1272 
L 4466 1272 
Q 4634 697 5009 306 
Q 5419 706 5600 1272 
z
" transform="scale(0.015625)"/>
       <path id="MicrosoftYaHei-6a7" d="M 119 2734 
L 1803 2734 
Q 1713 2903 1613 3053 
L 1897 3191 
L 875 3191 
L 875 3028 
L 450 3028 
L 450 5041 
L 3563 5041 
L 3563 3028 
L 3138 3028 
L 3138 3191 
L 2047 3191 
Q 2188 2972 2303 2734 
L 3969 2734 
L 3969 2372 
L 119 2372 
L 119 2734 
z
M 550 2016 
L 3475 2016 
L 3475 703 
L 3050 703 
L 3050 797 
L 2275 797 
L 2275 -72 
Q 2275 -791 1625 -791 
Q 1406 -791 1050 -784 
Q 1025 -559 969 -341 
Q 1288 -384 1513 -384 
Q 1844 -384 1844 -22 
L 1844 797 
L 975 797 
L 975 703 
L 550 703 
L 550 2016 
z
M 3600 -497 
Q 5038 378 5913 1734 
L 6300 1447 
Q 5319 -9 3931 -866 
Q 3763 -634 3600 -497 
z
M 3825 1784 
Q 4913 2522 5756 3634 
L 6144 3328 
Q 5200 2178 4150 1409 
Q 3981 1628 3825 1784 
z
M 3756 3616 
Q 4681 4203 5469 5222 
L 5856 4934 
Q 5075 3928 4088 3259 
Q 3906 3478 3756 3616 
z
M 3050 1678 
L 975 1678 
L 975 1134 
L 3050 1134 
L 3050 1678 
z
M 3138 4691 
L 875 4691 
L 875 4278 
L 3138 4278 
L 3138 4691 
z
M 875 3541 
L 3138 3541 
L 3138 3953 
L 875 3953 
L 875 3541 
z
M 81 -347 
Q 525 22 1019 609 
L 1381 359 
Q 838 -278 400 -634 
L 81 -347 
z
M 2575 372 
L 2869 641 
Q 3225 359 3675 -47 
L 3350 -366 
Q 3019 3 2575 372 
z
" transform="scale(0.015625)"/>
      </defs>
      <use xlink:href="#MicrosoftYaHei-761"/>
      <use xlink:href="#MicrosoftYaHei-6a7" transform="translate(100 0)"/>
      <use xlink:href="#MicrosoftYaHei-46e" transform="translate(200 0)"/>
      <use xlink:href="#MicrosoftYaHei-6df" transform="translate(300 0)"/>
      <use xlink:href="#MicrosoftYaHei-598" transform="translate(400 0)"/>
     </g>
    </g>
   </g>
  </g>
 </g>
 <defs>
  <clipPath id="p9fd6de5eec">
   <path d="M 429.28 235.048 
C 429.28 209.566901 424.260779 184.333573 414.509584 160.792107 
C 404.75839 137.250641 390.464858 115.858858 372.447 97.841 
C 354.429142 79.823142 333.037359 65.52961 309.495893 55.778416 
C 285.954427 46.027221 260.721099 41.008 235.24 41.008 
C 209.758901 41.008 184.525573 46.027221 160.984107 55.778416 
C 137.442641 65.52961 116.050858 79.823142 98.033 97.841 
C 80.015142 115.858858 65.72161 137.250641 55.970416 160.792107 
C 46.219221 184.333573 41.2 209.566901 41.2 235.048 
C 41.2 260.529099 46.219221 285.762427 55.970416 309.303893 
C 65.72161 332.845359 80.015142 354.237142 98.033 372.255 
C 116.050858 390.272858 137.442641 404.56639 160.984107 414.317584 
C 184.525573 424.068779 209.758901 429.088 235.24 429.088 
C 260.721099 429.088 285.954427 424.068779 309.495893 414.317584 
C 333.037359 404.56639 354.429142 390.272858 372.447 372.255 
C 390.464858 354.237142 404.75839 332.845359 414.509584 309.303893 
C 424.260779 285.762427 429.28 260.529099 429.28 235.048 
M 235.24 235.048 
C 235.24 235.048 235.24 235.048 235.24 235.048 
C 235.24 235.048 235.24 235.048 235.24 235.048 
C 235.24 235.048 235.24 235.048 235.24 235.048 
C 235.24 235.048 235.24 235.048 235.24 235.048 
C 235.24 235.048 235.24 235.048 235.24 235.048 
C 235.24 235.048 235.24 235.048 235.24 235.048 
C 235.24 235.048 235.24 235.048 235.24 235.048 
C 235.24 235.048 235.24 235.048 235.24 235.048 
C 235.24 235.048 235.24 235.048 235.24 235.048 
C 235.24 235.048 235.24 235.048 235.24 235.048 
C 235.24 235.048 235.24 235.048 235.24 235.048 
C 235.24 235.048 235.24 235.048 235.24 235.048 
C 235.24 235.048 235.24 235.048 235.24 235.048 
C 235.24 235.048 235.24 235.048 235.24 235.048 
C 235.24 235.048 235.24 235.048 235.24 235.048 
C 235.24 235.048 235.24 235.048 235.24 235.048 
z
"/>
  </clipPath>
 </defs>
</svg>
